<svg xmlns="http://www.w3.org/2000/svg" xmlns:xlink="http://www.w3.org/1999/xlink" preserveAspectRatio="xMidYMid meet" version="1.0" viewBox="0.0 0.0 501.9 501.9" zoomAndPan="magnify" style="fill: rgb(0, 0, 0);" original_string_length="11220"><g id="__id8_sww0ho29z"><path d="M251,501.9c-67,0-130.1-26.1-177.5-73.5S0,318,0,251S26.1,120.9,73.5,73.5S183.9,0,251,0 S381,26.1,428.4,73.5s73.5,110.4,73.5,177.5S475.8,381,428.4,428.4S318,501.9,251,501.9z M251,15c-63,0-122.3,24.5-166.9,69.1 C39.5,128.7,15,187.9,15,251s24.5,122.3,69.1,166.9c44.6,44.6,103.8,69.1,166.9,69.1s122.3-24.5,166.9-69.1 c44.6-44.6,69.1-103.8,69.1-166.9s-24.5-122.3-69.1-166.9C373.2,39.5,314,15,251,15z" style="fill: rgb(154, 118, 164);"/></g><g id="__id9_sww0ho29z"><path d="M246,470.6C246,470.6,246,470.6,246,470.6l-0.6,0c-2.2-0.1-3.9-1.9-3.8-4c0.1-2.1,1.8-3.8,3.9-3.8 c0,0,0.1,0,0.1,0l0.5,0c2.2,0.1,3.9,1.9,3.8,4C249.9,468.9,248.2,470.6,246,470.6z M265.8,470.1c-2.1,0-3.8-1.6-3.9-3.7 c-0.1-2.2,1.5-4,3.7-4.2l0.4,0c2.2-0.2,4.1,1.5,4.2,3.6c0.2,2.2-1.5,4.1-3.6,4.2l-0.5,0C265.9,470.1,265.8,470.1,265.8,470.1z M225.9,469.2c-0.1,0-0.3,0-0.5,0l-0.5-0.1c-2.2-0.3-3.7-2.2-3.4-4.4c0.3-2.2,2.2-3.7,4.4-3.4l0.5,0.1c2.2,0.2,3.7,2.2,3.5,4.4 C229.5,467.7,227.8,469.2,225.9,469.2z M285.8,467.8c-1.9,0-3.6-1.4-3.9-3.3c-0.4-2.1,1.1-4.2,3.3-4.5l0.5-0.1 c2.1-0.3,4.2,1.1,4.5,3.3s-1.1,4.2-3.3,4.5l-0.5,0.1C286.3,467.8,286.1,467.8,285.8,467.8z M205.9,465.9c-0.3,0-0.5,0-0.8-0.1 l-0.5-0.1c-2.1-0.5-3.5-2.6-3-4.7c0.5-2.1,2.6-3.5,4.7-3l0.5,0.1c2.1,0.5,3.5,2.5,3,4.7C209.4,464.7,207.7,465.9,205.9,465.9z M305.6,463.7c-1.8,0-3.4-1.2-3.8-3c-0.5-2.1,0.7-4.3,2.9-4.8l0.4-0.1c2.1-0.6,4.3,0.7,4.8,2.8c0.6,2.1-0.7,4.3-2.8,4.8l-0.5,0.1 C306.3,463.6,305.9,463.7,305.6,463.7z M186.4,460.8c-0.4,0-0.8-0.1-1.2-0.2l-0.4-0.1c-2.1-0.7-3.3-2.9-2.6-5 c0.7-2.1,2.8-3.2,4.9-2.6l0.5,0.1c2.1,0.6,3.2,2.9,2.6,4.9C189.6,459.7,188,460.8,186.4,460.8z M324.9,457.6c-1.6,0-3.1-1-3.7-2.6 c-0.7-2,0.3-4.3,2.4-5l0.4-0.2c2-0.7,4.3,0.3,5.1,2.3c0.7,2-0.3,4.3-2.3,5.1l-0.5,0.2C325.8,457.6,325.4,457.6,324.9,457.6z M167.4,453.9c-0.5,0-1-0.1-1.5-0.3l-0.5-0.2c-2-0.9-2.9-3.2-2.1-5.2c0.9-2,3.2-2.9,5.2-2.1l0.4,0.2c2,0.8,3,3.1,2.1,5.2 C170.4,452.9,168.9,453.9,167.4,453.9z M343.6,449.8c-1.5,0-2.9-0.8-3.5-2.2c-0.9-2-0.1-4.3,1.8-5.3l0.5-0.2c2-0.9,4.3-0.1,5.3,1.9 c0.9,2,0.1,4.3-1.9,5.2l-0.4,0.2C344.7,449.7,344.1,449.8,343.6,449.8z M149.1,445.1c-0.6,0-1.3-0.2-1.9-0.5l-0.4-0.2 c-1.9-1-2.6-3.4-1.6-5.3c1-1.9,3.4-2.6,5.3-1.6l0.4,0.2c1.9,1,2.6,3.4,1.6,5.3C151.9,444.4,150.5,445.1,149.1,445.1z M361.4,440.3 c-1.3,0-2.6-0.7-3.4-1.9c-1.1-1.9-0.5-4.3,1.3-5.4l0.4-0.3c1.9-1.1,4.3-0.5,5.4,1.4c1.1,1.9,0.5,4.3-1.4,5.4l-0.4,0.2 C362.8,440.1,362.1,440.3,361.4,440.3z M131.7,434.7c-0.7,0-1.5-0.2-2.2-0.7l-0.4-0.3c-1.8-1.2-2.3-3.6-1.1-5.5 c1.2-1.8,3.6-2.3,5.5-1.1l0.4,0.3c1.8,1.2,2.3,3.6,1.1,5.5C134.3,434.1,133,434.7,131.7,434.7z M378.3,429.1c-1.2,0-2.4-0.6-3.2-1.6 c-1.3-1.7-0.9-4.2,0.8-5.5l0.4-0.3c1.8-1.3,4.2-0.9,5.5,0.8c1.3,1.8,0.9,4.2-0.8,5.5l-0.4,0.3C379.9,428.9,379.1,429.1,378.3,429.1z M115.4,422.8c-0.9,0-1.8-0.3-2.5-0.9l-0.4-0.3c-1.7-1.4-2-3.8-0.6-5.5c1.4-1.7,3.8-2,5.5-0.6l0.4,0.3c1.7,1.4,1.9,3.9,0.6,5.5 C117.7,422.3,116.6,422.8,115.4,422.8z M394,416.4c-1.1,0-2.2-0.4-2.9-1.3c-1.4-1.6-1.3-4.1,0.3-5.5l0.4-0.3 c1.6-1.5,4.1-1.3,5.6,0.3c1.5,1.6,1.3,4.1-0.3,5.6l-0.3,0.3C395.9,416.1,394.9,416.4,394,416.4z M100.3,409.3c-1,0-2-0.4-2.7-1.1 l-0.4-0.4c-1.6-1.5-1.6-4,0-5.6c1.5-1.6,4-1.6,5.6,0l0.3,0.3c1.6,1.5,1.6,4,0.1,5.6C102.4,409,101.3,409.3,100.3,409.3z M408.5,402.3c-1,0-1.9-0.3-2.7-1.1c-1.6-1.5-1.7-4-0.2-5.6l0.3-0.4c1.5-1.6,4-1.7,5.6-0.2c1.6,1.5,1.7,4,0.2,5.6l-0.3,0.3 C410.6,401.9,409.5,402.3,408.5,402.3z M86.5,394.6c-1.1,0-2.2-0.5-3-1.4l-0.3-0.4c-1.4-1.7-1.2-4.1,0.5-5.6 c1.7-1.4,4.1-1.2,5.6,0.5l0.3,0.4c1.4,1.7,1.2,4.1-0.5,5.6C88.3,394.3,87.4,394.6,86.5,394.6z M421.6,386.9c-0.8,0-1.7-0.3-2.4-0.8 c-1.7-1.3-2.1-3.8-0.7-5.5l0.3-0.4c1.3-1.7,3.8-2,5.5-0.7c1.7,1.3,2,3.8,0.7,5.5l-0.3,0.4C424,386.4,422.8,386.9,421.6,386.9z M74.2,378.6c-1.2,0-2.5-0.6-3.2-1.7l-0.3-0.4c-1.2-1.8-0.8-4.2,1-5.5c1.8-1.2,4.2-0.8,5.5,1l0.3,0.4c1.2,1.8,0.8,4.2-1,5.5 C75.7,378.3,74.9,378.6,74.2,378.6z M433.2,370.4c-0.7,0-1.4-0.2-2.1-0.6c-1.8-1.2-2.4-3.6-1.2-5.4l0.3-0.4c1.2-1.8,3.6-2.4,5.4-1.2 c1.8,1.2,2.4,3.6,1.2,5.4l-0.3,0.4C435.8,369.7,434.5,370.4,433.2,370.4z M63.3,361.5c-1.4,0-2.7-0.7-3.4-2l-0.2-0.4 c-1.1-1.9-0.4-4.3,1.5-5.4c1.9-1.1,4.3-0.4,5.4,1.5l0.2,0.4c1.1,1.9,0.4,4.3-1.5,5.4C64.7,361.3,64,361.5,63.3,361.5z M443.3,352.8 c-0.6,0-1.2-0.1-1.8-0.4c-1.9-1-2.7-3.4-1.7-5.3l0.2-0.4c1-1.9,3.4-2.7,5.3-1.7c1.9,1,2.7,3.4,1.7,5.3l-0.2,0.4 C446.1,352,444.7,352.8,443.3,352.8z M54.2,343.5c-1.5,0-2.9-0.9-3.6-2.3l-0.2-0.4c-0.9-2,0-4.3,2-5.2c2-0.9,4.3,0,5.2,2l0.2,0.4 c0.9,2,0,4.3-2,5.2C55.3,343.4,54.7,343.5,54.2,343.5z M451.6,334.4c-0.5,0-1-0.1-1.4-0.3c-2-0.8-3-3.1-2.2-5.1l0.2-0.5 c0.8-2,3.1-3,5.1-2.2c2,0.8,3,3.1,2.2,5.1l-0.2,0.5C454.6,333.4,453.2,334.4,451.6,334.4z M46.7,324.7c-1.6,0-3.2-1-3.7-2.7 l-0.2-0.5c-0.7-2.1,0.4-4.3,2.5-5c2.1-0.7,4.3,0.4,5,2.5l0.2,0.5c0.7,2.1-0.4,4.3-2.4,5C47.6,324.6,47.2,324.7,46.7,324.7z M458.2,315.3c-0.4,0-0.7-0.1-1.1-0.2c-2.1-0.6-3.3-2.8-2.7-4.9l0.1-0.5c0.6-2.1,2.8-3.3,4.9-2.7c2.1,0.6,3.3,2.8,2.7,4.9l-0.1,0.5 C461.4,314.1,459.9,315.3,458.2,315.3z M41.1,305.2c-1.8,0-3.4-1.2-3.8-3l-0.1-0.5c-0.5-2.1,0.8-4.2,2.9-4.7 c2.1-0.5,4.2,0.8,4.7,2.9l0.1,0.5c0.5,2.1-0.8,4.2-2.9,4.7C41.7,305.2,41.4,305.2,41.1,305.2z M462.9,295.6c-0.2,0-0.5,0-0.8-0.1 c-2.1-0.4-3.5-2.5-3.1-4.6l0.1-0.5c0.4-2.1,2.5-3.5,4.6-3.1c2.1,0.4,3.5,2.5,3.1,4.6l-0.1,0.5C466.4,294.3,464.7,295.6,462.9,295.6z M37.3,285.4c-1.9,0-3.6-1.4-3.9-3.4l-0.1-0.5c-0.3-2.2,1.2-4.1,3.4-4.4c2.2-0.3,4.1,1.2,4.4,3.4l0.1,0.5c0.3,2.2-1.2,4.1-3.3,4.5 C37.7,285.4,37.5,285.4,37.3,285.4z M465.7,275.6c-0.1,0-0.3,0-0.4,0c-2.2-0.2-3.8-2.1-3.5-4.3l0-0.5c0.2-2.2,2.1-3.8,4.3-3.5 c2.2,0.2,3.8,2.1,3.5,4.3l0,0.5C469.5,274.1,467.7,275.6,465.7,275.6z M35.5,265.3c-2.1,0-3.8-1.6-3.9-3.8l0-0.5 c-0.1-2.2,1.6-4,3.7-4.1c2.2-0.1,4,1.6,4.1,3.7l0,0.5c0.1,2.2-1.6,4-3.7,4.1C35.6,265.3,35.5,265.3,35.5,265.3z M466.7,254.9 C466.7,254.9,466.7,254.9,466.7,254.9c-2.2,0-4.1-1.3-4.1-3.5V251c0,0,0-0.1,0-0.1v-0.5c0-2.2,1.8-3.9,4-3.9c2.2,0,4,1.8,4,3.9v0.4 c0,0,0,0.1,0,0.1v0.5C470.6,253.6,468.9,254.9,466.7,254.9z M35.4,245c-0.1,0-0.1,0-0.2,0c-2.2-0.1-3.9-1.9-3.8-4.1l0-0.5 c0.1-2.2,2-3.8,4.1-3.7c2.2,0.1,3.9,1.9,3.7,4.1l0,0.5C39.3,243.4,37.5,245,35.4,245z M465.8,234.7c-2,0-3.7-1.5-3.9-3.6l0-0.5 c-0.2-2.2,1.4-4.1,3.5-4.3c2.2-0.2,4.1,1.4,4.3,3.5l0,0.5c0.2,2.2-1.4,4.1-3.6,4.3C466,234.7,465.9,234.7,465.8,234.7z M37.3,224.9 c-0.2,0-0.4,0-0.5,0c-2.2-0.3-3.7-2.3-3.4-4.4l0.1-0.5c0.3-2.2,2.3-3.7,4.5-3.3c2.2,0.3,3.7,2.3,3.3,4.5l-0.1,0.5 C40.9,223.5,39.2,224.9,37.3,224.9z M463,214.7c-1.9,0-3.5-1.3-3.9-3.2L459,211c-0.4-2.1,1-4.2,3.1-4.6c2.1-0.4,4.2,1,4.6,3.1 l0.1,0.5c0.4,2.1-1,4.2-3.1,4.6C463.4,214.7,463.2,214.7,463,214.7z M41,205c-0.3,0-0.6,0-0.9-0.1c-2.1-0.5-3.4-2.6-2.9-4.7l0.1-0.5 c0.5-2.1,2.6-3.4,4.7-2.9c2.1,0.5,3.4,2.6,2.9,4.7l-0.1,0.5C44.4,203.8,42.8,205,41,205z M458.3,195c-1.7,0-3.3-1.1-3.8-2.9 l-0.1-0.5c-0.6-2.1,0.6-4.3,2.7-4.9c2.1-0.6,4.3,0.6,4.9,2.7l0.1,0.5c0.6,2.1-0.6,4.3-2.7,4.9C459,195,458.6,195,458.3,195z M46.6,185.6c-0.4,0-0.8-0.1-1.3-0.2c-2.1-0.7-3.2-2.9-2.5-5L43,180c0.7-2.1,3-3.2,5-2.5c2.1,0.7,3.2,2.9,2.5,5l-0.2,0.5 C49.8,184.6,48.2,185.6,46.6,185.6z M451.8,175.9c-1.6,0-3.1-1-3.7-2.5l-0.2-0.4c-0.8-2,0.2-4.3,2.2-5.1c2-0.8,4.3,0.2,5.1,2.2 l0.2,0.5c0.8,2-0.2,4.3-2.2,5.1C452.7,175.8,452.3,175.9,451.8,175.9z M54,166.8c-0.5,0-1.1-0.1-1.6-0.3c-2-0.9-2.9-3.2-2-5.2 l0.2-0.5c0.9-2,3.2-2.9,5.2-2c2,0.9,2.9,3.2,2,5.2l-0.2,0.4C56.9,165.9,55.5,166.8,54,166.8z M443.5,157.4c-1.4,0-2.8-0.8-3.5-2.2 l-0.2-0.4c-1-1.9-0.2-4.3,1.7-5.3c1.9-1,4.3-0.2,5.3,1.7l0.2,0.4c1,1.9,0.2,4.3-1.7,5.3C444.7,157.3,444.1,157.4,443.5,157.4z M63.1,148.7c-0.7,0-1.3-0.2-1.9-0.5c-1.9-1.1-2.6-3.5-1.5-5.4l0.2-0.4c1.1-1.9,3.5-2.5,5.4-1.5c1.9,1.1,2.5,3.5,1.5,5.4l-0.2,0.4 C65.8,148,64.5,148.7,63.1,148.7z M433.5,139.8c-1.3,0-2.6-0.7-3.3-1.8l-0.2-0.4c-1.2-1.8-0.6-4.3,1.2-5.4c1.8-1.2,4.3-0.6,5.4,1.2 l0.3,0.4c1.2,1.8,0.6,4.3-1.2,5.4C434.9,139.7,434.2,139.8,433.5,139.8z M73.9,131.6c-0.8,0-1.6-0.2-2.2-0.7c-1.8-1.2-2.2-3.7-1-5.5 L71,125c1.2-1.8,3.7-2.2,5.5-1c1.8,1.3,2.2,3.7,1,5.5l-0.3,0.4C76.4,131,75.1,131.6,73.9,131.6z M421.9,123.3 c-1.2,0-2.4-0.5-3.1-1.5l-0.3-0.4c-1.3-1.7-1-4.2,0.7-5.5c1.7-1.3,4.2-1,5.5,0.7l0.3,0.4c1.3,1.7,1,4.2-0.7,5.5 C423.6,123,422.8,123.3,421.9,123.3z M86.2,115.6c-0.9,0-1.8-0.3-2.5-0.9c-1.7-1.4-1.9-3.9-0.5-5.5l0.3-0.4c1.4-1.7,3.9-1.8,5.6-0.4 c1.7,1.4,1.8,3.9,0.4,5.6l-0.3,0.4C88.5,115.1,87.3,115.6,86.2,115.6z M408.8,107.9c-1.1,0-2.1-0.4-2.9-1.3l-0.3-0.3 c-1.5-1.6-1.4-4.1,0.2-5.6c1.6-1.5,4.1-1.4,5.6,0.2l0.4,0.4c1.5,1.6,1.4,4.1-0.2,5.6C410.8,107.5,409.8,107.9,408.8,107.9z M100,100.8c-1,0-2-0.4-2.8-1.2c-1.5-1.6-1.5-4,0.1-5.6l0.4-0.4c1.6-1.5,4.1-1.5,5.6,0.1c1.5,1.6,1.5,4.1-0.1,5.6l-0.3,0.3 C102,100.4,101,100.8,100,100.8z M394.4,93.7c-0.9,0-1.9-0.3-2.6-1l-0.3-0.3c-1.6-1.4-1.8-3.9-0.3-5.6c1.4-1.6,3.9-1.8,5.6-0.3 l0.4,0.3c1.6,1.5,1.8,3.9,0.3,5.6C396.5,93.3,395.5,93.7,394.4,93.7z M115.1,87.3c-1.1,0-2.3-0.5-3.1-1.5c-1.4-1.7-1.1-4.2,0.6-5.5 L113,80c1.7-1.4,4.2-1.1,5.5,0.6c1.4,1.7,1.1,4.2-0.6,5.5l-0.4,0.3C116.8,87,116,87.3,115.1,87.3z M378.7,81c-0.8,0-1.6-0.2-2.3-0.8 l-0.4-0.3c-1.8-1.3-2.1-3.7-0.9-5.5c1.3-1.8,3.8-2.1,5.5-0.9l0.4,0.3c1.8,1.3,2.1,3.8,0.8,5.5C381.1,80.4,379.9,81,378.7,81z M131.4,75.3c-1.3,0-2.5-0.6-3.3-1.8c-1.2-1.8-0.7-4.3,1.1-5.5l0.4-0.3c1.8-1.2,4.3-0.7,5.5,1.1c1.2,1.8,0.7,4.3-1.1,5.5l-0.4,0.3 C132.9,75.1,132.1,75.3,131.4,75.3z M361.8,69.8c-0.7,0-1.4-0.2-2-0.6l-0.4-0.3c-1.9-1.1-2.5-3.5-1.4-5.4c1.1-1.9,3.5-2.5,5.4-1.4 l0.4,0.3c1.9,1.1,2.5,3.5,1.4,5.4C364.5,69.1,363.2,69.8,361.8,69.8z M148.7,64.9c-1.4,0-2.8-0.8-3.5-2.1c-1-1.9-0.3-4.3,1.6-5.3 l0.4-0.2c1.9-1,4.3-0.3,5.3,1.6c1,1.9,0.3,4.3-1.6,5.3l-0.4,0.2C150,64.7,149.3,64.9,148.7,64.9z M344,60.2c-0.6,0-1.1-0.1-1.7-0.4 l-0.4-0.2c-2-0.9-2.8-3.3-1.9-5.3c0.9-2,3.3-2.8,5.3-1.9l0.4,0.2c2,0.9,2.8,3.3,1.9,5.3C346.9,59.4,345.5,60.2,344,60.2z M166.9,56.1c-1.5,0-3-0.9-3.6-2.4c-0.8-2,0.1-4.3,2.1-5.2l0.5-0.2c2-0.8,4.3,0.1,5.2,2.1c0.8,2-0.1,4.3-2.1,5.2l-0.4,0.2 C167.9,56,167.4,56.1,166.9,56.1z M325.4,52.3c-0.4,0-0.9-0.1-1.3-0.2l-0.5-0.2c-2-0.7-3.1-3-2.3-5.1c0.7-2,3-3.1,5.1-2.3l0.5,0.2 c2,0.7,3.1,3,2.4,5.1C328.5,51.3,327,52.3,325.4,52.3z M185.9,49.1c-1.7,0-3.2-1.1-3.8-2.8c-0.7-2.1,0.5-4.3,2.6-4.9l0.5-0.1 c2.1-0.7,4.3,0.5,4.9,2.6c0.7,2.1-0.5,4.3-2.6,4.9l-0.5,0.1C186.7,49.1,186.3,49.1,185.9,49.1z M306.1,46.3c-0.3,0-0.7,0-1-0.1 l-0.5-0.1c-2.1-0.5-3.4-2.7-2.8-4.8c0.5-2.1,2.7-3.4,4.8-2.8l0.5,0.1c2.1,0.6,3.4,2.7,2.8,4.8C309.4,45.1,307.8,46.3,306.1,46.3z M205.4,44c-1.8,0-3.4-1.3-3.8-3.1c-0.5-2.1,0.9-4.2,3-4.7l0.4-0.1c2.1-0.5,4.3,0.9,4.7,3c0.5,2.1-0.9,4.2-3,4.7l-0.5,0.1 C206,43.9,205.7,44,205.4,44z M286.3,42c-0.2,0-0.4,0-0.6-0.1l-0.5-0.1c-2.1-0.3-3.6-2.4-3.3-4.5c0.4-2.1,2.4-3.6,4.5-3.3l0.5,0.1 c2.1,0.4,3.6,2.4,3.2,4.5C289.9,40.7,288.2,42,286.3,42z M225.4,40.7c-2,0-3.7-1.5-3.9-3.5c-0.3-2.2,1.3-4.1,3.5-4.4l0.5-0.1 c2.2-0.3,4.1,1.3,4.4,3.5c0.3,2.2-1.3,4.1-3.5,4.4l-0.5,0.1C225.7,40.6,225.5,40.7,225.4,40.7z M266.2,39.7c-0.1,0-0.2,0-0.3,0 l-0.5,0c-2.2-0.1-3.8-2-3.7-4.2c0.1-2.2,2-3.8,4.2-3.7l0.5,0c2.2,0.1,3.8,2,3.7,4.2C270,38.1,268.3,39.7,266.2,39.7z M245.5,39.3 c-2.1,0-3.9-1.7-3.9-3.9c-0.1-2.2,1.7-4,3.8-4.1l0.5,0c2.1-0.1,4,1.7,4,3.8c0.1,2.2-1.7,4-3.8,4.1L245.5,39.3 C245.6,39.3,245.6,39.3,245.5,39.3z" style="fill: rgb(154, 118, 164);"/></g></svg>