<?xml version="1.0" encoding="UTF-8"?>
<svg xmlns="http://www.w3.org/2000/svg" xmlns:xlink="http://www.w3.org/1999/xlink" height="64.1" preserveAspectRatio="xMidYMid meet" version="1.0" viewBox="5.6 32.0 116.9 64.1" width="116.9" zoomAndPan="magnify"><g><g fill="#ce9f41" id="change1_1"><path d="M101.31,42.88L80.19,64l21.12,21.12L122.43,64L101.31,42.88z M81.6,64l19.71-19.71L121.02,64l-19.71,19.71 L81.6,64z" fill="inherit"/><path d="M26.69,42.88L5.57,64l21.12,21.12L47.81,64L26.69,42.88z M6.98,64l19.71-19.71L46.4,64L26.69,83.71L6.98,64z" fill="inherit"/><path d="M84.62,53.08L63.5,31.95L42.38,53.08L53.3,64L42.38,74.92L63.5,96.05l21.12-21.12L73.7,64L84.62,53.08z M43.79,53.08L63.5,33.37l19.71,19.71L72.99,63.29L63.5,53.8l-9.49,9.49L43.79,53.08z M72.28,64l-8.78,8.78L54.72,64l8.78-8.78 L72.28,64z M83.21,74.92L63.5,94.63L43.79,74.92l10.22-10.22l9.49,9.49l9.49-9.49L83.21,74.92z" fill="inherit"/></g></g></svg>